<svg xmlns="http://www.w3.org/2000/svg"  viewBox="0 0 4335 4335" width="1083px" height="1083px" fill-rule="evenodd" clip-rule="evenodd" image-rendering="optimizeQuality" shape-rendering="geometricPrecision" text-rendering="geometricPrecision"><path d="M1811 2190l-104 57 116 210 104 -57 -116 -210zm1655 -1585l0 0c12,0 23,6 30,16l644 339 -637 272 0 241c60,19 103,76 103,142l0 16c0,22 -18,39 -39,39l-219 0c-22,0 -39,-18 -39,-39l0 -16c0,-73 53,-133 122,-146l0 -205 0 -622c0,-20 16,-37 37,-37zm-16 1198c146,0 264,118 264,264 0,122 -83,225 -196,255l6 63c2,52 -5,100 -5,125 -10,2 -106,-11 -119,-12 -1,-4 5,-82 3,-109 -1,-17 -2,-41 -4,-64 -121,-24 -212,-131 -212,-259 0,-146 118,-264 264,-264zm0 132c73,0 132,59 132,132 0,73 -59,132 -132,132 -73,0 -132,-59 -132,-132 0,-73 59,-132 132,-132zm0 -55c103,0 187,84 187,186 0,103 -84,187 -187,187 -103,0 -186,-84 -186,-187 0,-103 84,-186 186,-186zm-3042 735c141,5 253,121 253,264 0,146 -118,264 -264,264 -146,0 -264,-118 -264,-264 0,-107 64,-200 156,-241l-6 -65c-2,-52 5,-100 5,-125 10,-2 106,11 119,12 1,4 -5,82 -3,109 1,13 1,29 3,47zm-10 132c73,0 132,59 132,132 0,73 -59,132 -132,132 -73,0 -132,-59 -132,-132 0,-73 59,-132 132,-132zm0 -55c103,0 186,84 186,186 0,103 -84,187 -186,187 -103,0 -186,-84 -186,-187 0,-103 84,-186 186,-186zm1599 76l104 -57 -116 -210 -104 57 116 210zm1040 249l57 104c34,-10 129,-82 162,-111 12,-11 34,-31 42,-42 -6,-8 -13,-13 -20,-20l-66 -62c-30,20 -57,66 -175,131zm-976 -144c28,51 90,110 132,147l48 39 69 -99c-32,-21 -91,-78 -116,-108 -11,-13 -29,-34 -36,-47 -35,19 -66,51 -98,68zm662 343c15,-4 43,-2 61,-4 21,-2 40,-4 61,-7 22,-3 41,-8 63,-13 14,-3 52,-12 67,-20 -9,-21 -28,-93 -40,-114 -13,7 -42,13 -55,17 -51,13 -111,19 -162,20 4,15 -2,109 4,122zm556 -417c14,16 90,60 99,69 9,-8 11,-16 18,-26 17,-25 50,-88 61,-116 10,-25 29,-67 31,-91l-113 -32 -18 50c-12,29 -54,125 -78,147zm-931 324c17,18 152,65 182,69 7,1 9,2 16,4 7,2 9,1 16,3 7,1 9,2 16,3 10,2 9,4 19,0 -2,-8 5,-47 7,-58 1,-10 2,-19 3,-29 1,-5 1,-8 2,-14l3 -14c-10,-5 -37,-8 -52,-12 -59,-17 -71,-19 -128,-45 -9,-4 -19,-7 -26,-14 -6,6 -11,18 -15,25l-42 81zm-1580 -1184l-57 -104c-34,10 -129,82 -162,111 -12,11 -34,31 -42,42 6,8 13,13 20,20l66 62c30,-20 57,-66 175,-131zm976 144c-28,-51 -90,-110 -132,-147l-48 -39 -69 99c32,21 91,78 116,108 11,13 29,34 36,47 35,-19 66,-51 98,-68zm-662 -343c-15,4 -43,2 -60,4 -21,2 -40,4 -61,7 -22,3 -41,8 -63,13 -14,3 -52,12 -67,20 9,21 28,93 40,114 13,-7 42,-13 55,-17 51,-13 111,-19 162,-20 -4,-15 2,-109 -4,-122zm-556 417c-14,-16 -90,-60 -99,-69 -9,8 -11,16 -18,26 -17,25 -50,88 -61,116 -10,25 -29,67 -31,91l113 32 18 -50c12,-29 54,-125 78,-147zm931 -324c-17,-18 -152,-65 -182,-69 -7,-1 -9,-2 -16,-4 -7,-2 -9,-1 -16,-3 -7,-1 -9,-2 -16,-3 -10,-2 -9,-4 -19,0 2,8 -5,47 -7,58 -1,10 -2,19 -3,29 -1,5 -1,8 -2,14l-3 14c10,5 37,8 52,12 59,17 71,19 128,45 9,4 19,7 26,14 6,-6 11,-18 15,-25l42 -81z"/></svg>