<svg fill="#000000" xmlns="http://www.w3.org/2000/svg"  viewBox="0 0 128 128" width="512px" height="512px"><path d="M 64 6 C 32 6 6 32 6 64 C 6 76.2 9.7007812 87.900781 16.800781 97.800781 C 17.400781 98.600781 18.300781 99 19.300781 99 C 19.900781 99 20.5 98.800391 21 98.400391 C 22.3 97.400391 22.699219 95.599219 21.699219 94.199219 C 15.399219 85.399219 12 74.9 12 64 C 12 36.3 33.7 13.699609 61 12.099609 L 61 21.099609 C 54 21.599609 47.199219 23.8 41.199219 27.5 C 39.799219 28.4 39.399219 30.199609 40.199219 31.599609 C 41.099219 32.999609 42.900781 33.399609 44.300781 32.599609 C 50.300781 28.899609 57 27 64 27 C 83.4 27 99.300391 42 100.90039 61 L 91.900391 61 C 91.600391 58.1 90.799219 55.299609 89.699219 52.599609 C 88.999219 51.099609 87.299219 50.399609 85.699219 51.099609 C 84.199219 51.799609 83.499219 53.499609 84.199219 55.099609 C 85.399219 57.899609 86.099609 60.9 86.099609 64 C 86.099609 76.1 76.199609 86 64.099609 86 C 51.999609 86 42.099609 76.1 42.099609 64 C 42.099609 51.9 51.999609 42 64.099609 42 C 67.099609 42 69.999219 42.599219 72.699219 43.699219 C 74.199219 44.299219 75.999609 43.599609 76.599609 42.099609 C 77.199609 40.599609 76.5 38.799219 75 38.199219 C 71.4 36.699219 67.8 36 64 36 C 49.6 36 37.699219 47 36.199219 61 L 27.199219 61 C 27.699219 55.1 29.499219 49.400391 32.699219 44.400391 C 33.599219 43.000391 33.199219 41.100781 31.699219 40.300781 C 30.299219 39.400781 28.399609 39.800781 27.599609 41.300781 C 23.299609 48.000781 21 55.9 21 64 C 21 86.7 38.7 105.30039 61 106.90039 L 61 115.90039 C 51.2 115.30039 41.799219 112.10078 33.699219 106.30078 C 32.399219 105.30078 30.5 105.6 29.5 107 C 28.5 108.3 28.799219 110.19922 30.199219 111.19922 C 40.099219 118.29922 51.8 122 64 122 C 96 122 122 96 122 64 C 122 51.8 118.29922 40.099219 111.19922 30.199219 C 110.19922 28.899219 108.4 28.5 107 29.5 C 105.7 30.5 105.30078 32.299219 106.30078 33.699219 C 112.60078 42.599219 116 53 116 64 C 116 91.7 94.3 114.30039 67 115.90039 L 67 106.90039 C 74 106.40039 80.800781 104.2 86.800781 100.5 C 88.200781 99.6 88.600781 97.800391 87.800781 96.400391 C 86.900781 95.000391 85.099219 94.600391 83.699219 95.400391 C 77.699219 99.100391 71 101 64 101 C 44.6 101 28.699609 86 27.099609 67 L 36.099609 67 C 37.699609 81 49.6 92 64 92 C 78.4 92 90.300781 81 91.800781 67 L 100.80078 67 C 100.30078 72.9 98.500781 78.599609 95.300781 83.599609 C 94.400781 84.999609 94.800781 86.899219 96.300781 87.699219 C 96.800781 87.999219 97.300391 88.199219 97.900391 88.199219 C 98.900391 88.199219 99.900391 87.700781 100.40039 86.800781 C 104.70039 80.000781 107 72.1 107 64 C 107 41.3 89.3 22.699609 67 21.099609 L 67 12.099609 C 76.8 12.699609 86.200781 15.899219 94.300781 21.699219 C 95.600781 22.699219 97.5 22.4 98.5 21 C 99.5 19.6 99.200781 17.800781 97.800781 16.800781 C 87.900781 9.7007812 76.2 6 64 6 z M 64 51 C 56.8 51 51 56.8 51 64 C 51 71.2 56.8 77 64 77 C 64.7 77 65.300391 77.000391 65.900391 76.900391 C 67.500391 76.700391 68.700391 75.1 68.400391 73.5 C 68.200391 71.9 66.6 70.7 65 71 L 64 71 C 60.1 71 57 67.9 57 64 C 57 60.1 60.1 57 64 57 C 67.9 57 71 60.1 71 64 C 71 64.3 71.000391 64.7 70.900391 65 C 70.700391 66.6 71.8 68.100391 73.5 68.400391 C 75.1 68.600391 76.700391 67.500391 76.900391 65.900391 C 77.000391 65.200391 77 64.6 77 64 C 77 56.8 71.2 51 64 51 z"/></svg>